<svg width="24" height="24" viewBox="0 0 24 24" fill="none" xmlns="http://www.w3.org/2000/svg">
<path d="M21 5.97998C17.67 5.64998 14.32 5.47998 10.98 5.47998C9.00001 5.47998 7.02002 5.57998 5.04002 5.77998L3.00002 5.97998" stroke="#292D32" stroke-width="0.665166" stroke-linecap="round" stroke-linejoin="round"/>
<path d="M8.49998 4.97L8.71999 3.66C8.87999 2.71 8.99998 2 10.69 2H13.31C15 2 15.13 2.75 15.28 3.67L15.5 4.97" stroke="#292D32" stroke-width="0.665166" stroke-linecap="round" stroke-linejoin="round"/>
<path d="M18.85 9.14014L18.2 19.2101C18.09 20.7801 18 22.0001 15.21 22.0001H8.79001C6.00001 22.0001 5.91001 20.7801 5.80001 19.2101L5.15001 9.14014" stroke="#292D32" stroke-width="0.665166" stroke-linecap="round" stroke-linejoin="round"/>
<path d="M10.33 16.5H13.66" stroke="#292D32" stroke-width="0.665166" stroke-linecap="round" stroke-linejoin="round"/>
<path d="M9.5 12.5H14.5" stroke="#292D32" stroke-width="0.665166" stroke-linecap="round" stroke-linejoin="round"/>
</svg>
