<svg width="25" height="24" viewBox="0 0 25 24" fill="none" xmlns="http://www.w3.org/2000/svg">
<path d="M6.44001 19.5201C5.83001 19.5201 5.26001 19.31 4.85001 18.92C4.33001 18.43 4.08001 17.69 4.17001 16.89L4.54001 13.65C4.61001 13.04 4.98001 12.23 5.41001 11.79L13.62 3.10005C15.67 0.930049 17.81 0.870049 19.98 2.92005C22.15 4.97005 22.21 7.11005 20.16 9.28005L11.95 17.97C11.53 18.42 10.75 18.84 10.14 18.9401L6.92001 19.49C6.75001 19.5 6.60001 19.5201 6.44001 19.5201ZM16.83 2.91005C16.06 2.91005 15.39 3.39005 14.71 4.11005L6.50001 12.8101C6.30001 13.0201 6.07001 13.5201 6.03001 13.8101L5.66001 17.05C5.62001 17.38 5.70001 17.65 5.88001 17.82C6.06001 17.99 6.33001 18.05 6.66001 18L9.88001 17.4501C10.17 17.4001 10.65 17.14 10.85 16.93L19.06 8.24005C20.3 6.92005 20.75 5.70005 18.94 4.00005C18.14 3.23005 17.45 2.91005 16.83 2.91005Z" fill="#292D32"/>
<path d="M18.24 10.9498C18.22 10.9498 18.19 10.9498 18.17 10.9498C15.05 10.6398 12.54 8.26985 12.06 5.16985C12 4.75985 12.28 4.37985 12.69 4.30985C13.1 4.24985 13.48 4.52985 13.55 4.93985C13.93 7.35985 15.89 9.21985 18.33 9.45985C18.74 9.49985 19.04 9.86985 19 10.2798C18.95 10.6598 18.62 10.9498 18.24 10.9498Z" fill="#292D32"/>
<path d="M21.9 22.75H3.90002C3.49002 22.75 3.15002 22.41 3.15002 22C3.15002 21.59 3.49002 21.25 3.90002 21.25H21.9C22.31 21.25 22.65 21.59 22.65 22C22.65 22.41 22.31 22.75 21.9 22.75Z" fill="#292D32"/>
</svg>
