<svg width="21" height="20" viewBox="0 0 21 20" fill="none" xmlns="http://www.w3.org/2000/svg">
<path d="M12.3631 2.91782L13.8261 5.84382C14.0256 6.25113 14.5576 6.64182 15.0065 6.71663L17.6582 7.15719C19.3539 7.43982 19.7529 8.67007 18.531 9.88369L16.4695 11.9452C16.1204 12.2943 15.9292 12.9676 16.0372 13.4498L16.6274 16.0017C17.0929 18.0216 16.0206 18.803 14.2334 17.7473L11.748 16.276C11.2991 16.01 10.5593 16.01 10.1021 16.276L7.61667 17.7473C5.8378 18.803 4.75717 18.0133 5.22267 16.0017L5.81286 13.4498C5.92092 12.9676 5.72973 12.2943 5.38061 11.9452L3.31911 9.88369C2.10548 8.67007 2.49617 7.43982 4.19192 7.15719L6.84361 6.71663C7.28417 6.64182 7.81617 6.25113 8.01567 5.84382L9.47867 2.91782C10.2767 1.33013 11.5734 1.33013 12.3631 2.91782Z" fill="#D9D9D9"/>
</svg>
