<?xml version="1.0" encoding="UTF-8"?>
<svg version="1.1" viewBox="0 0 1000 391" xmlns="http://www.w3.org/2000/svg">
<g transform="translate(-.60606 .52048)">
<svg width="1e3" height="391" data-background-color="#ffffff" viewBox="0 0 396 155" xmlns="http://www.w3.org/2000/svg" xmlns:xlink="http://www.w3.org/1999/xlink">
<g transform="translate(.24 -.20633)">
<svg width="395.52" height="155.41" viewBox="0 0 395.52 155.41265822784806">
<svg width="395.52" height="155.41" viewBox="0 0 395.52 155.41265822784806">
<svg width="395.52" height="155.41" viewBox="0 0 395.52 155.41265822784806">
<svg width="395.52" height="155.41" viewBox="0 0 395.52 155.41265822784806">
<svg width="395.52" height="155.41" viewBox="0 0 395.52 155.41265822784806">
<g>
<svg width="395.52" height="155.41" data-palette-color="#4790fc" viewBox="0.75 -36.75 94.79000091552734 37.25">
<path class="wordmark-text-0" d="m7.35 0.5q-3.35 0-4.95-1.03-1.6-1.02-1.6-2.32 0-0.85 0.3-1.98 0.3-1.12 0.95-2.07 0.8 0.7 2.05 1.17 1.25 0.48 2.6 0.48 2.05 0 2.85-1.05t0.8-2.8q0-1.3-0.47-2.45-0.48-1.15-1.78-2.85l-4.55-6.1q-1.7-2.3-2.25-4t-0.55-3.35q0-3.4 2.25-5.53 2.25-2.12 6.65-2.12 3.8 0 5.3 0.75t1.5 2.05q0 0.7-0.3 1.52-0.3 0.83-1 1.63-0.4-0.3-1.65-0.65t-2.7-0.35q-1.85 0-2.9 0.62-1.05 0.63-1.05 1.93 0 1.15 0.43 2.12 0.42 0.98 1.37 2.33l4.8 6.15q1.8 2.3 2.4 4.15t0.6 4q0 2.5-0.77 4.72-0.78 2.23-2.73 3.63t-5.6 1.4zm11.5-0.5v-34.3q0-1.25 0.45-1.75t1.67-0.6q1.23-0.1 3.48-0.1v35.75q0 0.5-0.23 0.7-0.22 0.2-1.4 0.25-1.17 0.05-3.97 0.05zm15.34 0.5q-1.4 0-2.67-0.25-1.28-0.25-2.28-1.05t-1.57-2.35q-0.58-1.55-0.58-4.15 0-2.55 0.48-4.18 0.47-1.62 1.3-2.52 0.82-0.9 1.85-1.23 1.02-0.32 2.12-0.32 0.55 0 1.55 0.15t1.65 0.6q0 0 0-0.58 0-0.57 0-1.37t0-1.5q0-0.65-0.2-1.05t-0.65-0.6-1.25-0.2q-1.4 0-3.07 0.3-1.68 0.3-2.93 0.75-0.45-0.85-0.6-1.75t-0.15-1.5q0-0.45 0.18-0.98 0.17-0.52 0.52-0.77 0.55-0.4 2.5-0.93 1.95-0.52 4.95-0.52 3.45 0 4.88 1.35 1.42 1.35 1.42 4.75v2.35q0 2.85 0 5.85t-0.05 5.62q-0.05 2.63-0.2 4.48-1.25 0.75-3.1 1.18-1.85 0.42-4.1 0.42zm0.4-4.6q0.35 0 0.75-0.13 0.4-0.12 0.6-0.37 0.05-0.55 0.08-1.68 0.02-1.12 0.02-2.42t0-2.35q-0.25-0.25-0.62-0.33-0.38-0.07-0.68-0.07-0.4 0-0.72 0.17-0.33 0.18-0.55 0.63-0.23 0.45-0.35 1.22-0.13 0.78-0.13 1.98 0 0.9 0.08 1.52 0.07 0.63 0.25 1.05 0.17 0.43 0.5 0.6 0.32 0.18 0.77 0.18zm17.5 4.6q-1.6 0-3.05-0.37-1.45-0.38-2.6-1.58t-1.8-3.58q-0.65-2.37-0.65-6.32 0-5.15 0.9-8.25t2.45-4.5 3.5-1.4q1 0 1.75 0.25t1.2 0.65v-9.7q0-1.25 0.43-1.75 0.42-0.5 1.65-0.6 1.22-0.1 3.52-0.1v35.75q-1.25 0.55-3.05 1.03-1.8 0.47-4.25 0.47zm0.05-4.95q0.5 0 0.9-0.13 0.4-0.12 0.75-0.37v-15.5q-0.2-0.15-0.5-0.2t-0.55-0.05q-0.35 0-0.77 0.2-0.43 0.2-0.83 1.02-0.4 0.83-0.62 2.58-0.23 1.75-0.23 4.85 0 2.25 0.1 3.72 0.1 1.48 0.33 2.33 0.22 0.85 0.57 1.2t0.85 0.35zm10.4 4.45v-34.3q0-1.25 0.45-1.75t1.68-0.6q1.22-0.1 3.52-0.1v12.65q1-0.55 2.37-0.98 1.38-0.42 2.93-0.42 1.7 0 2.6 0.65t1.22 1.62q0.33 0.98 0.33 1.98 0 1.4-0.27 2.6-0.28 1.2-0.73 2.15t-0.95 1.65-0.95 1.15q1.3 0.95 2.07 2.4 0.78 1.45 1.16 3.25 0.37 1.8 0.37 3.8 0 0.8-0.03 1.67-0.02 0.88-0.12 1.73-0.05 0.4-0.35 0.6t-1.6 0.22q-1.3 0.03-4.45 0.03 0.1-1.3 0.18-2.58 0.07-1.27 0.07-2.47 0-1.45-0.12-2.6-0.13-1.15-0.4-1.98-0.28-0.82-0.75-1.2-0.48-0.37-1.23-0.22-0.4 0.05-0.7 0.22-0.3 0.18-0.48 0.33-0.17 0.15-0.17 0.15v9.35q0 0.5-0.22 0.7-0.23 0.2-1.41 0.25-1.17 0.05-4.02 0.05zm5.65-19.1v5q1.05-0.6 1.75-1.3t1.05-1.63q0.35-0.92 0.35-2.12 0-1.35-1-1.35-0.65 0-1.17 0.37-0.53 0.38-0.98 1.03zm19.15 19.6q-2 0-3.5-0.47-1.5-0.48-2.48-1.86-0.97-1.37-1.45-3.95-0.47-2.57-0.47-6.77 0-6.8 2.17-9.88 2.18-3.07 6.13-3.07 2.7 0 4.42 1.07 1.73 1.08 2.55 3.85 0.83 2.78 0.83 7.83 0 7.25-2.08 10.25-2.07 3-6.12 3zm0.15-4.65q0.5 0 0.92-0.5 0.43-0.5 0.7-2.3 0.28-1.8 0.28-5.65 0-3.6-0.15-5.38-0.15-1.77-0.55-2.32t-1.15-0.55q-0.55 0-1 0.57-0.45 0.58-0.7 2.35-0.25 1.78-0.25 5.33 0 2.9 0.12 4.62 0.13 1.73 0.35 2.53 0.23 0.8 0.6 1.05 0.38 0.25 0.83 0.25z" fill="#4790fc" data-fill-palette-color="primary"/>
</svg>
</g>
</svg>
</svg>
</svg>
</svg>
</svg>
<rect width="395.52" height="155.41" fill="none" visibility="hidden"/>
</g>
</svg>
</g>
</svg>