<svg width="25" height="24" viewBox="0 0 25 24" fill="none" xmlns="http://www.w3.org/2000/svg">
<path fill-rule="evenodd" clip-rule="evenodd" d="M21.4131 1.25802C21.5466 1.65013 21.3369 2.07622 20.9448 2.2097L19.1285 2.82802L18.7106 4.49972H22.1926C22.199 4.49963 22.2054 4.49963 22.2118 4.49972H23C23.4142 4.49972 23.75 4.8355 23.75 5.24972C23.75 5.66393 23.4142 5.99972 23 5.99972H22.878L21.2729 21.1804C21.2277 21.7417 20.9736 22.2658 20.5606 22.649C20.1445 23.0351 19.5978 23.2497 19.0302 23.2497H12.9688H12.5H6.78125C5.73077 23.2497 4.86208 22.8155 4.26949 22.0992C3.84094 21.5812 3.57478 20.9394 3.46473 20.2494C2.09547 20.227 1.25 18.8987 1.25 17.6247C1.25 17.0246 1.43763 16.4124 1.77925 15.9303C1.44009 15.5807 1.25 15.1125 1.25 14.6247C1.25 14.1274 1.44754 13.6505 1.79917 13.2989C2.06151 13.0366 2.39357 12.86 2.7518 12.7872C2.78942 11.335 3.41431 10.1825 4.41705 9.40407C5.43023 8.61756 6.77756 8.24972 8.1875 8.24972H11.3907L11.129 5.99972H11C10.5858 5.99972 10.25 5.66393 10.25 5.24972C10.25 4.8355 10.5858 4.49972 11 4.49972H11.7875C11.7944 4.49962 11.8013 4.49962 11.8081 4.49972H17.1644L17.7724 2.06781C17.8342 1.82069 18.0172 1.62182 18.2583 1.53973L20.4614 0.789728C20.8535 0.656242 21.2796 0.865903 21.4131 1.25802ZM17.7343 5.99972H12.6392L12.8906 8.16167C12.8987 8.23096 12.897 8.29915 12.8867 8.36487C13.8005 8.52949 14.6448 8.87293 15.3341 9.41009C16.3336 10.1891 16.9576 11.34 16.9979 12.7872C17.3563 12.8599 17.6884 13.0365 17.9508 13.2989C18.3025 13.6505 18.5 14.1274 18.5 14.6247C18.5 15.1125 18.3099 15.5807 17.9708 15.9303C18.3124 16.4124 18.5 17.0246 18.5 17.6247C18.5 18.8987 17.6545 20.227 16.2853 20.2494C16.1988 20.7915 16.016 21.3038 15.7338 21.7497H19.0301C19.2194 21.7497 19.4016 21.6782 19.5403 21.5495C19.679 21.4208 19.7639 21.2444 19.778 21.0557L19.7789 21.0443L19.7801 21.0329L21.3696 5.99972H17.7668C17.756 5.99995 17.7452 5.99995 17.7343 5.99972ZM12.5 21.7497H12.9688C13.5753 21.7497 14.0191 21.5125 14.3248 21.143C14.5181 20.9093 14.6684 20.6064 14.7564 20.2497H4.99362C5.08162 20.6064 5.23192 20.9093 5.42524 21.143C5.73089 21.5125 6.1747 21.7497 6.78125 21.7497H12.5ZM4.25403 12.7497C4.2986 11.7814 4.70994 11.0756 5.33685 10.589C6.02289 10.0564 7.01932 9.74972 8.1875 9.74972H11.5625C12.7294 9.74972 13.7257 10.0584 14.412 10.5932C15.0375 11.0807 15.4485 11.7861 15.4955 12.7497H4.25403ZM3.125 14.2497C3.02554 14.2497 2.93016 14.2892 2.85984 14.3596C2.78951 14.4299 2.75 14.5253 2.75 14.6247C2.75 14.7242 2.78951 14.8196 2.85984 14.8899C2.93016 14.9602 3.02554 14.9997 3.125 14.9997H3.5H5.59484H5.59519C5.89316 14.9999 6.17891 15.1182 6.38972 15.3288L6.39002 15.3291L7.25 16.1891L8.10998 15.3291L8.11028 15.3288C8.32109 15.1182 8.60684 14.9999 8.90481 14.9997H8.90516H16.25H16.625C16.7245 14.9997 16.8198 14.9602 16.8902 14.8899C16.9605 14.8196 17 14.7242 17 14.6247C17 14.5253 16.9605 14.4299 16.8902 14.3596C16.8198 14.2892 16.7245 14.2497 16.625 14.2497H3.125ZM9.06066 16.4997H16.25C16.5166 16.4997 17 16.8387 17 17.6247C17 18.4108 16.5166 18.7497 16.25 18.7497H15.5938H4.15625H3.5C3.23343 18.7497 2.75 18.4108 2.75 17.6247C2.75 16.8387 3.23343 16.4997 3.5 16.4997H5.43934L6.58672 17.6471L6.58701 17.6474C6.67403 17.7344 6.77732 17.8035 6.89099 17.8506C7.00481 17.8978 7.12681 17.9221 7.25 17.9221C7.37319 17.9221 7.49519 17.8978 7.60901 17.8506C7.72268 17.8035 7.82597 17.7344 7.91299 17.6474L7.91328 17.6471L9.06066 16.4997Z" fill="#373737"/>
</svg>
