<svg width="20" height="20" viewBox="0 0 20 20" fill="none" xmlns="http://www.w3.org/2000/svg">
<path d="M11.4131 2.91782L12.8761 5.84382C13.0756 6.25113 13.6076 6.64182 14.0565 6.71663L16.7082 7.15719C18.4039 7.43982 18.8029 8.67007 17.581 9.88369L15.5195 11.9452C15.1703 12.2943 14.9792 12.9676 15.0872 13.4498L15.6774 16.0017C16.1429 18.0216 15.0706 18.803 13.2834 17.7473L10.798 16.276C10.3491 16.01 9.60929 16.01 9.1521 16.276L6.66666 17.7473C4.88778 18.803 3.80716 18.0133 4.27266 16.0017L4.86285 13.4498C4.97091 12.9676 4.77972 12.2943 4.4306 11.9452L2.3691 9.88369C1.15547 8.67007 1.54616 7.43982 3.24191 7.15719L5.8936 6.71663C6.33416 6.64182 6.86616 6.25113 7.06566 5.84382L8.52866 2.91782C9.32666 1.33013 10.6234 1.33013 11.4131 2.91782Z" fill="#F2BC57"/>
</svg>
